Motion_kv08_l
version=1
nRows=5
nColumns=43
inDegrees=yes
endheader
time	pelvis_tilt	pelvis_list	pelvis_rotation	pelvis_tx	pelvis_ty	pelvis_tz	hip_flexion_r	hip_adduction_r	hip_rotation_r	knee_angle_r	ankle_angle_r	subtalar_angle_r	mtp_angle_r	hip_flexion_l	hip_adduction_l	hip_rotation_l	knee_angle_l	ankle_angle_l	subtalar_angle_l	mtp_angle_l	lumbar_extension	lumbar_bending	lumbar_rotation	neck_flexion	neck_lateral_bending	neck_rotation	arm_flex_r	arm_add_r	arm_rot_r	elbow_flex_r	pro_sup_r	wrist_flex_r	wrist_dev_r	hand_finger_flex_r	arm_flex_l	arm_add_l	arm_rot_l	elbow_flex_l	pro_sup_l	wrist_flex_l	wrist_dev_l	hand_finger_flex_l
      1.27250000	      4.04452601	     -4.47995810	     88.60905556	      0.01987434	      0.58342335	      0.35439549	     76.52746559	    -10.37087952	     -7.69356025	   -111.35230270	     33.07463268	     10.39229134	     -4.71312710	     76.10041782	    -12.78084680	      6.59368401	   -112.94903491	     41.23707716	      6.84160713	     -6.27249934	    -52.29199574	      8.10501385	      6.32602075	     10.43205392	     -5.25190702	      8.09993638	    255.58739058	   -133.24546486	    213.79501403	     81.00237184	     99.46856075	    -43.64039224	    -24.99999983	     27.90075322	    -99.88102356	   -126.55252350	   -132.17029375	     97.03327646	    115.13667571	    -44.44482310	      4.62624861	     90.00021046
      1.27500000	      4.06588783	     -4.58423381	     88.63839344	      0.01980307	      0.58430740	      0.35380293	     76.49236427	    -10.33122260	     -7.67340316	   -111.21458452	     33.02342856	     10.39893729	     -4.65695449	     76.12667325	    -12.74681578	      6.64760308	   -112.86029814	     40.97754693	      6.93229383	     -6.27960798	    -52.29929119	      8.11714580	      6.28322608	     10.24438873	     -5.12631553	      8.10774443	    255.73925841	   -133.26049110	    214.05320776	     81.26174627	     99.37481966	    -43.62821360	    -24.99999983	     27.89084421	    -99.75768131	   -126.36135478	   -131.87642754	     97.34475506	    115.29985417	    -44.39600410	      4.53768515	     90.00021046
      1.27750000	      4.09820711	     -4.71403241	     88.69325267	      0.01984428	      0.58507295	      0.35334861	     76.47580005	    -10.28699654	     -7.68553329	   -111.07286217	     32.99728696	     10.38571888	     -4.57235127	     76.21619259	    -12.71534557	      6.72923052	   -112.76239385	     40.73462801	      7.02837201	     -6.26907027	    -52.26396985	      8.12719961	      6.21217535	     10.20699228	     -5.01455515	      8.16644917	    255.93921506	   -133.35738090	    214.33824260	     81.36383630	     99.17399709	    -43.62350931	    -24.99999983	     27.85987907	    -99.53289675	   -126.22117911	   -131.50972421	     97.54062044	    115.53225814	    -44.30748972	      4.43140535	     90.00021046
      1.28000000	      4.10295893	     -4.79778972	     88.72091941	      0.01974002	      0.58596292	      0.35258527	     76.38657617	    -10.25327115	     -7.64812939	   -110.95213980	     32.98223202	     10.38000624	     -4.56136945	     76.20519269	    -12.69399790	      6.72984991	   -112.70398807	     40.69620818	      7.04876268	     -6.26678171	    -52.21828217	      8.13770969	      6.20377624	     10.18066467	     -4.98127513	      8.17341627	    255.94890870	   -133.42341320	    214.41563460	     81.47483926	     99.15121614	    -43.62183223	    -24.99999983	     27.85553329	    -99.61267346	   -126.24815249	   -131.35788524	     97.64350081	    115.57010572	    -44.28099110	      4.40454358	     90.00021046
      1.28250000	      4.17241047	     -4.96735712	     88.81878957	      0.01984870	      0.58664776	      0.35216951	     76.39136260	    -10.22484033	     -7.74473460	   -110.81141120	     33.00581682	     10.27791094	     -4.38390714	     76.38423090	    -12.64653505	      6.89609988	   -112.62427848	     40.34413383	      7.24067627	     -6.20414238	    -52.12565209	      8.18130658	      6.08032337	     10.13053546	     -4.76646721	      8.32060236	    256.16524393	   -133.50463332	    214.85118256	     81.59850550	     98.65062994	    -43.68367320	    -24.98004456	     27.75873547	    -99.27764798	   -125.95369626	   -130.82712864	     97.90245462	    116.04631679	    -44.09634184	      4.18676774	     90.00021046
